<?xml version="1.0" encoding="UTF-8" standalone="no"?>
<svg
   viewBox="0 0 300 300"
   role="img"
   aria-label="Minimal Pomodoro timer icon"
   version="1.1"
   id="svg2"
   sodipodi:docname="app-icon.svg"
   width="300"
   height="300"
   xml:space="preserve"
   inkscape:version="1.4.2 (ebf0e940, 2025-05-08)"
   inkscape:export-filename="../favicon.png"
   inkscape:export-xdpi="96"
   inkscape:export-ydpi="96"
   xmlns:inkscape="http://www.inkscape.org/namespaces/inkscape"
   xmlns:sodipodi="http://sodipodi.sourceforge.net/DTD/sodipodi-0.dtd"
   xmlns="http://www.w3.org/2000/svg"
   xmlns:svg="http://www.w3.org/2000/svg"><defs
     id="defs2" /><sodipodi:namedview
     id="namedview2"
     pagecolor="#ffffff"
     bordercolor="#999999"
     borderopacity="1"
     inkscape:showpageshadow="2"
     inkscape:pageopacity="0"
     inkscape:pagecheckerboard="0"
     inkscape:deskcolor="#d1d1d1"
     showgrid="false"
     inkscape:zoom="0.2541165"
     inkscape:cx="-27.546421"
     inkscape:cy="546.99321"
     inkscape:window-width="1920"
     inkscape:window-height="955"
     inkscape:window-x="0"
     inkscape:window-y="30"
     inkscape:window-maximized="1"
     inkscape:current-layer="svg2" /><rect
     width="300"
     height="300"
     rx="65.625"
     fill="#08090c"
     id="rect1"
     x="0"
     y="0"
     style="stroke-width:2.34375;fill:#000000"
     inkscape:export-filename="../favicon.png"
     inkscape:export-xdpi="96"
     inkscape:export-ydpi="96" /><path
     style="fill:#ffffff;stroke-width:0.281531"
     d="m 140.79691,266.49823 c -0.38711,-0.0633 -1.97072,-0.25745 -3.51914,-0.43138 C 116.01283,263.67851 96.057768,255.64461 78.547494,242.422 70.287176,236.18433 61.602929,227.56031 55.749645,219.78223 47.492342,208.80951 41.51997,196.47373 38.027972,183.17848 c -1.033811,-3.93602 -1.350616,-5.41287 -1.840959,-8.582 -0.08384,-0.54194 -0.204252,-1.17534 -0.267539,-1.40763 -0.750787,-2.75512 -1.437752,-15.62334 -0.897578,-16.8133 0.401238,-0.88393 1.321282,-1.1027 7.492892,-1.78154 5.946724,-0.6541 6.569019,-0.58968 7.071721,0.73249 0.151717,0.39913 0.277365,2.20598 0.279222,4.01523 0.0124,12.30583 2.735919,24.21878 8.340667,36.48388 7.830223,17.1351 22.54675,32.93092 40.102604,43.0436 15.072268,8.68202 31.245078,13.20515 49.666938,13.89049 9.09965,0.33865 20.93276,-1.21435 30.68689,-4.02722 13.7743,-3.97222 26.54559,-10.75832 37.74599,-20.05672 6.29266,-5.22403 14.58269,-14.43661 18.64315,-20.71783 8.72254,-13.49307 13.59691,-27.59463 14.88906,-43.07422 0.11633,-1.3936 0.17815,-4.02611 0.13736,-5.85008 l -0.0742,-3.3163 0.8737,-0.87365 c 0.86709,-0.86715 0.89009,-0.87237 3.03984,-0.6897 2.44155,0.2074 8.13377,0.94167 9.62388,1.24147 1.71661,0.34542 1.82803,0.94201 1.45422,7.78621 -1.22784,22.47892 -9.65372,43.66494 -24.24506,60.96165 -9.32129,11.04955 -19.52867,19.60402 -32.09383,26.89646 -12.12715,7.03843 -26.83252,12.22585 -40.55156,14.30486 -1.62584,0.24642 -3.84291,0.59165 -4.92679,0.76722 -1.87456,0.30373 -20.8826,0.63186 -22.38172,0.38638 z m 8.02363,-22.91125 c -0.30969,-0.12671 -0.81644,-0.5119 -1.12612,-0.85585 -0.53256,-0.59148 -0.56755,-1.08456 -0.64553,-9.09553 -0.0867,-8.90757 -0.003,-9.66564 1.16926,-10.48624 0.94109,-0.65915 2.83253,-0.52404 3.7539,0.26806 l 0.78992,0.67918 0.0824,8.66508 c 0.0569,5.99682 -0.0161,8.90252 -0.23713,9.43623 -0.51633,1.24662 -2.42453,1.94659 -3.7866,1.38907 z m -24.54143,-4.64538 c -0.49102,-0.21545 -1.04455,-0.67534 -1.23006,-1.02194 -0.38604,-0.72135 -0.21136,-2.82844 0.39543,-4.76953 0.21699,-0.69415 0.55093,-1.83218 0.74209,-2.52898 1.219,-4.44322 1.67284,-5.06755 3.68395,-5.06755 1.14352,0 1.43744,0.12346 2.06241,0.86621 1.00904,1.1992 0.93773,2.1674 -0.52514,7.12954 -1.31841,4.47205 -1.83505,5.32877 -3.39126,5.62385 -0.4674,0.0886 -1.24333,-0.0145 -1.73742,-0.2316 z m 49.03463,0.14091 c -0.30968,-0.1268 -0.76892,-0.46707 -1.02053,-0.75635 -0.61621,-0.70843 -2.90297,-8.67313 -2.91294,-10.1457 -0.0146,-2.15132 2.13527,-3.48871 4.03169,-2.50802 1.09358,0.56547 1.20417,0.78184 2.24094,4.38572 1.74648,6.07057 1.7989,6.35959 1.34913,7.43602 -0.61144,1.46342 -2.25952,2.17313 -3.68829,1.58833 z M 98.307313,228.20313 c -0.711935,-0.599 -0.866186,-0.93765 -0.866186,-1.90148 0,-1.03152 0.427759,-1.81627 3.554383,-6.52053 4.07142,-6.12592 4.39259,-6.52232 5.47677,-6.76052 1.03695,-0.22775 2.61756,0.52166 3.03569,1.43938 0.60261,1.32258 0.3768,2.42023 -0.89223,4.33687 -4.58014,6.91768 -6.46533,9.5934 -6.93692,9.84571 -0.98593,0.52765 -2.44876,0.33703 -3.371507,-0.43943 z m 100.114117,0.53116 c -0.28141,-0.0727 -2.27677,-2.78831 -4.43411,-6.03446 -4.32927,-6.51411 -4.53634,-7.0717 -3.21106,-8.64669 0.9437,-1.12153 2.1194,-1.36571 3.36807,-0.69971 0.73238,0.39075 1.85427,1.85888 4.60186,6.02231 1.99836,3.02806 3.71865,5.77419 3.82287,6.10256 0.24815,0.78176 -0.44743,2.41433 -1.2759,2.9946 -0.62732,0.43944 -1.77877,0.54425 -2.87173,0.26139 z M 74.851808,206.53181 c -1.674547,-0.90855 -2.045802,-3.31406 -0.703067,-4.55519 0.346029,-0.31992 2.812748,-2.05046 5.481606,-3.84575 4.209367,-2.83154 5.003905,-3.26412 5.995317,-3.26412 1.926602,0 3.173924,1.77845 2.629556,3.74923 -0.210699,0.76277 -1.075364,1.45067 -5.815728,4.62632 -3.093661,2.07251 -5.845711,3.72528 -6.192641,3.71903 -0.343413,-0.008 -0.97117,-0.19943 -1.395043,-0.42952 z m 142.513452,-3.31979 c -5.17074,-3.45014 -5.90407,-4.14326 -5.90407,-5.58041 0,-0.86783 1.0397,-2.39448 1.76275,-2.58826 1.59631,-0.42789 2.194,-0.15889 7.45179,3.35343 5.66869,3.7868 6.20799,4.35953 5.85864,6.22183 -0.23477,1.2514 -1.34221,2.07244 -2.79533,2.07244 -1.01472,0 -1.81151,-0.4349 -6.37378,-3.47903 z M 147.0554,189.92575 c -1.88359,-0.50712 -2.72148,-0.94476 -4.49915,-2.34991 -1.86397,-1.47334 -3.59081,-4.77768 -3.87277,-7.41053 -0.87191,-8.1418 6.47729,-14.75506 14.19755,-12.77581 l 1.80825,0.46356 1.71089,-1.19612 c 0.94099,-0.65779 3.06723,-2.14944 4.72496,-3.31459 3.37689,-2.3736 10.22513,-7.14974 16.94623,-11.81874 4.2988,-2.98639 4.53408,-3.10951 5.94089,-3.10951 1.97751,0 3.2378,0.84336 3.77334,2.52505 0.71086,2.23226 0.27123,2.89851 -5.18133,7.8515 -4.35745,3.95825 -15.89983,14.5505 -19.45967,17.8579 -1.38607,1.28776 -1.45994,1.43048 -1.64758,3.18265 -0.26917,2.51341 -1.95837,5.87036 -3.74769,7.44783 -3.09647,2.72989 -6.89405,3.66975 -10.69392,2.64672 z M 61.814669,171.9348 c -1.105967,-1.10595 -1.025168,-3.05365 0.172804,-4.1654 l 0.834233,-0.77424 h 6.879801 c 4.545094,0 7.118568,0.10875 7.583349,0.3205 1.658864,0.75584 1.984089,3.60002 0.54144,4.73489 -0.693777,0.54571 -1.106051,0.57523 -8.025972,0.57523 h -7.294637 z m 160.083611,-0.0505 c -0.9112,-1.1584 -0.80127,-3.02515 0.23944,-4.0659 l 0.82295,-0.82291 h 6.73638 c 3.99029,0 7.08302,0.12081 7.58668,0.29638 1.85825,0.64787 2.3019,3.52542 0.73373,4.75902 -0.69441,0.54613 -1.10531,0.57521 -8.13352,0.57521 h -7.40215 z m -73.42383,-17.19062 c -0.98769,-0.55169 -1.86061,-1.82183 -6.83092,-9.93916 -1.75403,-2.86455 -3.37849,-5.42998 -3.60993,-5.70095 -0.35922,-0.42062 -0.91928,-0.49052 -3.82593,-0.47793 -1.8728,0.008 -5.62216,0.13021 -8.33191,0.2714 -2.70974,0.14116 -7.87755,0.39057 -11.48404,0.55425 -5.99315,0.27191 -9.33411,0.51978 -19.062075,1.4143 -6.83991,0.62895 -17.263935,1.69906 -20.411002,2.09528 -1.780683,0.22425 -4.441151,0.54698 -5.912152,0.71717 -6.530253,0.75566 -11.202119,1.3574 -14.217317,1.83132 -2.238003,0.35174 -8.314623,1.21248 -9.853585,1.39574 -0.675646,0.0804 -4.190955,0.64469 -6.311025,1.01294 -2.149376,0.3733 -2.482231,0.33985 -3.137719,-0.31562 -0.696339,-0.69638 -0.716497,-2.5099 -0.08423,-7.58387 1.603629,-12.86941 5.237828,-23.63851 11.448318,-33.92452 5.262743,-8.716305 13.297639,-17.103148 21.31097,-22.244455 8.736106,-5.605033 18.068663,-8.95866 28.153105,-10.116765 6.068432,-0.696895 6.881232,-0.634093 10.515092,0.812486 1.72655,0.687295 3.48755,1.334479 3.91337,1.438177 0.42583,0.10369 0.77421,0.284085 0.77421,0.400857 0,0.116782 -1.99536,1.707906 -4.43411,3.535835 -7.261924,5.443042 -11.257497,6.878722 -17.975644,6.458956 l -3.154612,-0.197104 -0.502871,0.767506 c -0.490568,0.748684 -0.486063,0.79943 0.183671,2.068857 4.260635,8.075956 15.425956,12.42056 27.995046,10.89332 4.12699,-0.501457 4.80481,-0.635096 12.10584,-2.386969 5.80085,-1.391915 9.58401,-2.097792 10.12681,-1.889503 0.23682,0.09086 0.4306,0.371865 0.4306,0.624397 0,0.807357 1.8502,4.761715 3.03268,6.481685 1.51545,2.20424 3.48507,4.26497 5.55401,5.81094 1.92081,1.43527 4.65517,3.03163 5.19279,3.03163 0.91168,0 4.88879,-2.88761 7.35795,-5.3423 2.93621,-2.91898 4.63786,-5.52644 5.64886,-8.655838 0.32146,-0.995037 0.75181,-1.873363 0.95631,-1.951835 0.45839,-0.175914 4.99656,0.714832 10.96792,2.15276 8.17343,1.96821 11.00915,2.395213 15.90651,2.395213 6.80488,0 11.13471,-1.107316 16.24109,-4.153513 3.67663,-2.193294 7.40751,-6.471515 7.40751,-8.494272 0,-1.142364 -0.81799,-1.3686 -4.18732,-1.158106 -5.035,0.314553 -9.07946,-0.652677 -13.0997,-3.132769 -1.84361,-1.137323 -8.9869,-6.482152 -9.11122,-6.81729 -0.0413,-0.111323 1.68288,-0.86117 3.83149,-1.666332 4.45686,-1.670148 5.31604,-1.751635 11.16474,-1.058907 13.44505,1.592451 24.32417,6.221484 35.05062,14.913957 3.109,2.519476 7.97115,7.573063 10.41663,10.826807 0.38712,0.51505 0.97211,1.272415 1.3,1.683035 1.95521,2.44852 5.90845,9.50368 7.95565,14.19801 1.98964,4.56238 4.01007,10.54059 4.82587,14.27939 1.31171,6.01143 2.52452,15.74893 2.14825,17.24811 -0.38438,1.53144 -0.83219,1.55009 -8.34689,0.34704 -1.471,-0.23555 -3.49803,-0.54365 -4.5045,-0.68475 -1.00647,-0.14117 -3.66694,-0.51857 -5.91215,-0.83874 -2.24521,-0.32008 -5.09572,-0.714 -6.33446,-0.87536 -1.23873,-0.16137 -3.13906,-0.41 -4.22296,-0.55255 -1.08389,-0.14263 -3.36429,-0.4029 -5.06755,-0.57855 -1.70326,-0.17565 -4.36373,-0.49497 -5.91215,-0.70955 -13.26732,-1.83877 -45.66259,-4.20587 -57.56075,-4.20587 h -4.91446 l -2.82763,4.5292 c -1.55524,2.49107 -3.70695,5.95625 -4.78164,7.70031 -1.07469,1.74414 -2.23316,3.35412 -2.57437,3.57769 -1.02723,0.6731 -2.41116,0.74788 -3.41909,0.18481 z m 3.14226,-12.75443 c 5.06679,-8.47916 7.19818,-12.18536 7.19818,-12.51656 0,-0.21647 -0.19907,-0.59277 -0.4424,-0.8361 -0.38131,-0.38125 -1.54025,-0.44234 -8.38963,-0.44234 -8.44193,0 -8.62289,0.0282 -8.62289,1.35415 0,0.37322 1.92536,3.90659 4.27854,7.85202 4.79064,8.03193 4.19425,7.57419 5.9782,4.58883 z m -3.30473,-36.76105 c -4.3672,-3.20366 -7.29069,-7.752743 -8.06257,-12.545568 -0.15488,-0.961652 -0.44345,-1.851176 -0.64124,-1.97671 -0.48285,-0.306407 -2.79158,-0.292204 -4.86419,0.02995 -0.92905,0.1444 -2.13259,0.328149 -2.67455,0.408344 -1.68281,0.249005 -4.8285,0.9491 -8.89958,1.980679 -10.15566,2.573332 -17.02514,2.951024 -22.76051,1.251382 -2.098338,-0.621815 -5.221362,-2.094576 -6.308241,-2.974834 l -0.665483,-0.538967 2.354669,-0.379237 c 4.705365,-0.757822 8.121685,-2.316929 12.981025,-5.924163 3.5055,-2.602212 7.60366,-5.383724 8.94005,-6.067794 0.54195,-0.27741 2.12052,-0.911196 3.5079,-1.40841 l 2.52255,-0.904036 -1.73772,-0.877204 c -2.41104,-1.21709 -5.05405,-2.239993 -10.62719,-4.112952 -7.39569,-2.485474 -11.466943,-4.699595 -14.780367,-8.038188 -2.146363,-2.162673 -3.436648,-4.232266 -4.383606,-7.03125 -1.222802,-3.614326 -0.770157,-8.381821 0.824097,-8.679613 0.355772,-0.06648 1.099549,0.534416 2.329135,1.88166 4.057341,4.445508 10.185421,7.723198 17.699941,9.467031 1.54842,0.359334 3.44875,0.739401 4.22296,0.844606 2.91853,0.39657 8.8153,1.61971 11.12048,2.306653 3.45886,1.030741 7.98568,2.985847 10.89787,4.706705 l 2.53077,1.495468 0.17984,-4.531683 c 0.16273,-4.100564 1.15759,-14.328898 1.43781,-14.782282 0.0627,-0.101481 0.18558,-0.792926 0.27306,-1.536536 0.35229,-2.99578 1.94244,-9.95977 2.51356,-11.008112 0.45101,-0.827912 1.04121,-1.338397 2.27848,-1.97071 1.61047,-0.823045 1.80054,-0.853102 5.34845,-0.845855 3.19338,0.0068 3.89798,0.09493 5.34159,0.670192 2.31101,0.920924 4.00333,2.652145 4.25895,4.356893 0.20802,1.38708 0.29622,1.152535 -2.10512,5.597974 -1.93563,3.583286 -3.48211,8.885446 -4.20701,14.423691 -0.44726,3.41706 -0.71573,9.712818 -0.4142,9.712818 0.14318,0 0.95287,-0.446211 1.79926,-0.991588 5.27692,-3.400093 12.34218,-5.832255 21.26849,-7.32152 7.25009,-1.209605 10.60113,-2.172907 15.21202,-4.372902 4.02916,-1.92243 7.18084,-4.362036 9.76408,-7.558016 0.71774,-0.887994 1.63759,-0.667462 2.23922,0.536854 0.69388,1.389049 0.6639,5.018297 -0.0607,7.364831 -1.02464,3.3174 -3.76015,7.12907 -6.64672,9.26149 -3.52731,2.60578 -6.29499,3.918757 -13.63261,6.467306 -4.80577,1.669164 -10.69818,4.130185 -10.69818,4.468199 0,0.106128 0.58732,0.350043 1.30515,0.542039 3.25746,0.871231 6.8997,2.942253 12.56132,7.142494 5.87015,4.354935 9.18295,5.943637 14.13967,6.780858 l 2.23347,0.377252 -1.28419,0.883552 c -1.65466,1.138435 -3.8806,2.116993 -6.32076,2.778696 -1.60882,0.436278 -2.93258,0.524933 -7.71351,0.516606 -6.21595,-0.01087 -6.91454,-0.106848 -14.35808,-1.973169 -5.8777,-1.473728 -8.82032,-2.061602 -12.09978,-2.417292 -4.20853,-0.456454 -4.31968,-0.41157 -4.7766,1.929129 -0.75924,3.889508 -2.39143,7.129735 -4.89924,9.725909 -1.69698,1.75681 -4.31547,3.86898 -4.78397,3.85897 -0.17965,-0.004 -0.93555,-0.45366 -1.67978,-0.9996 z"
     id="path2" /></svg>
