<?xml version="1.0" encoding="UTF-8" standalone="no"?>
<svg
   viewBox="0 0 300 300"
   role="img"
   aria-label="Undistracted Timer icon"
   version="1.1"
   id="svg2"
   sodipodi:docname="app-icon.svg"
   width="300"
   height="300"
   xml:space="preserve"
   inkscape:version="1.4.2 (ebf0e940, 2025-05-08)"
   inkscape:export-filename="../favicon.png"
   inkscape:export-xdpi="96"
   inkscape:export-ydpi="96"
   xmlns:inkscape="http://www.inkscape.org/namespaces/inkscape"
   xmlns:sodipodi="http://sodipodi.sourceforge.net/DTD/sodipodi-0.dtd"
   xmlns="http://www.w3.org/2000/svg"
   xmlns:svg="http://www.w3.org/2000/svg"><defs
     id="defs2" /><sodipodi:namedview
     id="namedview2"
     pagecolor="#ffffff"
     bordercolor="#999999"
     borderopacity="1"
     inkscape:showpageshadow="2"
     inkscape:pageopacity="0"
     inkscape:pagecheckerboard="0"
     inkscape:deskcolor="#d1d1d1"
     showgrid="false"
     inkscape:zoom="0.359375"
     inkscape:cx="-93.217391"
     inkscape:cy="162.78261"
     inkscape:window-width="1416"
     inkscape:window-height="636"
     inkscape:window-x="156"
     inkscape:window-y="286"
     inkscape:window-maximized="0"
     inkscape:current-layer="svg2" /><rect
     width="300"
     height="300"
     rx="65.625"
     fill="#08090c"
     id="rect1"
     x="0"
     y="0"
     style="stroke-width:2.34375;fill:#000000"
     inkscape:export-filename="favicon.png"
     inkscape:export-xdpi="96"
     inkscape:export-ydpi="96" /><path
     style="fill:#ffffff;stroke-width:3.96881"
     d="m 43.907999,269.58891 c -4.85176,-1.30664 -8.86031,-5.30971 -10.14378,-10.12991 -0.31895,-1.1976 -0.39795,-5.76301 -0.40093,-23.0987 -0.004,-23.77032 -0.0812,-22.72856 1.81891,-24.3971 1.37252,-1.20508 2.85333,-1.66619 4.6627,-1.4519 2.01452,0.2386 3.45672,1.26953 4.38667,3.13571 l 0.76295,1.53096 v 20.61671 20.6167 l 0.8502,0.85022 c 0.46725,0.46762 1.15478,0.84883 1.52701,0.84712 0.37262,-0.002 10.29722,0.0314 22.05543,0.073 l 21.37863,0.0758 1.29763,0.72718 c 4.25022,2.3817 4.00423,8.49937 -0.42253,10.51042 -1.0965,0.49809 -2.50942,0.52895 -23.70801,0.51695 -18.45338,-0.0106 -22.81829,-0.0871 -24.06488,-0.42283 z m 164.116461,0.0975 c -4.11735,-1.43924 -5.21676,-6.54636 -2.10194,-9.76459 1.74104,-1.79886 1.49921,-1.78166 25.12353,-1.78701 23.38734,-0.005 22.43981,0.0626 23.09358,-1.65684 0.16694,-0.43841 0.2787,-8.66768 0.27946,-20.56351 10e-4,-13.50699 0.10359,-20.20371 0.32118,-20.99608 0.46352,-1.68755 2.4381,-3.49356 4.24248,-3.88054 2.54533,-0.54587 4.87687,0.39198 6.21325,2.4992 l 0.85602,1.3498 v 21.70515 c 0,23.29694 0.0147,22.99121 -1.48751,25.94607 -0.88971,1.74692 -3.86346,4.7069 -5.72604,5.69966 -3.45069,1.83921 -2.87315,1.80194 -27.53324,1.77667 -14.82466,-0.0147 -22.7036,-0.12624 -23.28084,-0.32795 z m -66.75358,-31.66824 c -8.39925,-0.92668 -17.69886,-3.3896 -25.45068,-6.74043 -20.093501,-8.68562 -37.244861,-25.74898 -45.954491,-45.71859 -3.62745,-8.31718 -6.19313,-17.78067 -6.99684,-25.80762 l -0.19373,-1.93851 1.55823,-0.18966 c 0.85706,-0.10431 3.25991,-0.12461 5.33957,-0.0455 l 3.78119,0.14449 0.7619,4.45602 c 1.91153,11.18011 5.63363,20.46963 12.05398,30.08426 12.128116,18.16216 31.219921,30.48069 52.563001,33.91503 5.51298,0.88709 17.13571,0.95772 22.17161,0.13474 16.46479,-2.69079 31.17648,-10.17889 42.63139,-21.69894 12.05211,-12.12071 19.39272,-26.68299 21.95743,-43.55895 l 0.49407,-3.25299 1.05336,-0.1468 c 0.57902,-0.0807 3.06676,-0.1389 5.52751,-0.1293 l 4.47416,0.017 -0.18108,1.94659 c -0.30629,3.29534 -1.35419,8.99173 -2.40308,13.06267 -6.26601,24.32047 -23.01279,45.03213 -45.76685,56.60237 -8.33837,4.23997 -16.36464,6.7842 -26.7694,8.48557 -3.31253,0.54162 -16.91117,0.79039 -20.65145,0.37772 z m 6.68072,-20.78266 c -0.69453,-0.73948 -0.71838,-0.89971 -0.71838,-4.95173 0,-4.15749 0.004,-4.19311 0.78232,-4.96976 1.02079,-1.02081 2.33705,-1.04309 3.32393,-0.0559 0.69975,0.6999 0.72807,0.87353 0.77606,4.83472 0.0447,3.75031 -0.003,4.17962 -0.55443,4.92164 -0.87264,1.17329 -2.61509,1.28015 -3.60972,0.2214 z m -1.4147,-55.86034 c -5.98999,-1.6108 -9.6872,-7.24982 -8.72178,-13.30269 0.59766,-3.74524 2.79856,-6.8646 6.07733,-8.61218 l 1.7414,-0.92817 v -12.048 c 0,-10.40818 0.0671,-12.20763 0.46949,-13.22106 1.22102,-3.05165 5.15595,-3.39584 7.01457,-0.61361 l 0.66026,0.98833 v 12.53741 12.53741 l 1.38162,0.72508 c 2.01072,1.05525 3.90571,3.07984 5.04081,5.38552 0.94992,1.92951 0.99463,2.16461 0.99463,5.22604 0,3.05726 -0.0447,3.29017 -0.95386,5.03214 -1.74834,3.34787 -3.83619,5.10554 -7.37213,6.20603 -2.07027,0.64431 -4.15492,0.67322 -6.33227,0.0877 z m -64.089821,-8.99999 c -1.38371,-0.77141 -1.55593,-2.74845 -0.33536,-3.84683 0.68112,-0.61286 0.98613,-0.65444 4.79654,-0.65444 3.93246,0 4.09313,0.0238 4.78305,0.71391 0.97935,0.97934 0.96392,2.43994 -0.0374,3.38018 -0.70497,0.66339 -0.97675,0.70944 -4.58117,0.77809 -2.99701,0.0574 -4.00483,-0.0238 -4.6276,-0.37096 z m 125.868311,0.10753 c -1.50405,-0.82264 -1.79074,-2.69918 -0.59468,-3.8949 0.69081,-0.69043 0.84872,-0.71391 4.81249,-0.71391 3.96369,0 4.12205,0.0231 4.81249,0.71391 1.20015,1.20019 0.88798,3.07405 -0.64834,3.8924 -0.81772,0.43557 -7.586,0.43758 -8.38144,0.002 z M 62.852329,140.00814 c 0.42626,-5.64463 2.42841,-14.50337 4.70242,-20.80499 8.94064,-24.775749 27.01106,-43.601445 51.030331,-53.163255 6.45858,-2.57107 16.3469,-5.02686 22.47394,-5.58141 l 2.26044,-0.20478 -0.079,5.76728 -0.079,5.76723 -2.90863,0.36314 c -8.91337,1.11317 -19.09486,4.47729 -27.3274,9.02936 -6.43131,3.55609 -10.86418,6.9626 -16.738731,12.862946 -6.37034,6.398329 -9.98736,11.327409 -13.98481,19.057649 -4.68461,9.05889 -7.32727,17.38017 -8.43331,26.55532 l -0.35921,2.98137 h -5.37771 -5.37773 z m 163.708461,2.27231 c -0.70422,-0.33944 -0.80401,-0.62851 -1.0804,-3.13257 -0.54475,-4.93246 -2.67046,-13.04969 -4.81309,-18.3768 -4.14589,-10.30824 -9.66916,-18.6881 -17.42164,-26.431859 -5.00855,-5.00297 -7.90965,-7.364486 -13.20182,-10.746396 -9.19432,-5.87562 -19.22304,-9.62909 -30.05294,-11.24796 l -3.30418,-0.49393 0.004,-5.25478 c 0.004,-6.86045 -0.0596,-6.64208 1.99753,-6.41911 17.00195,1.84002 31.23417,7.55018 44.82782,17.98561 3.83157,2.94137 11.38307,10.43583 14.52673,14.417016 5.64124,7.14415 9.98498,14.684279 13.22523,22.956949 2.9824,7.6143 4.97315,15.71581 5.65904,23.02953 0.27723,2.95286 0.20568,3.32091 -0.72733,3.74579 -0.93039,0.42388 -8.74726,0.39839 -9.63927,-0.0314 z m -77.9274,-48.060969 c -1.30314,-0.56674 -1.6212,-1.85653 -1.49913,-6.079466 0.0969,-3.34971 0.11996,-3.4531 0.91549,-4.13693 1.03554,-0.88992 2.27005,-0.89604 3.29278,-0.0155 0.76443,0.65757 0.80139,0.81805 0.92056,3.99941 0.16021,4.284756 -0.18407,5.675596 -1.54684,6.244996 -1.16468,0.48662 -0.93404,0.48796 -2.08286,-0.0121 z m 109.71078,-3.32324 c -1.42849,-0.65929 -2.29502,-1.57256 -2.92688,-3.084756 -0.44042,-1.05511 -0.46352,-2.94351 -0.26827,-21.98657 0.22503,-21.94376 0.21014,-22.27365 -1.06386,-23.4273 -0.57381,-0.51918 -1.64468,-0.55085 -23.33093,-0.68961 -22.24821,-0.14249 -22.75137,-0.15799 -23.74392,-0.74111 -4.00252,-2.35137 -3.75481,-8.45032 0.4203,-10.34677 1.10872,-0.50362 2.49987,-0.53432 24.50418,-0.54035 l 23.32869,-0.008 1.88314,0.68358 c 4.99305,1.81241 8.3377,5.53066 9.38591,10.43461 0.39645,1.85546 0.4285,4.7684 0.25708,23.64025 -0.13561,14.9078 -0.29884,21.87954 -0.53208,22.68052 -0.90178,3.095546 -4.86562,4.790546 -7.91337,3.383916 z M 36.995659,90.718061 c -1.53133,-0.54169 -3.21781,-2.373586 -3.64474,-3.958966 -0.52686,-1.95754 -0.0991,-43.4089 0.47246,-45.7476 1.15836,-4.74067 5.39547,-9.07254 10.2982,-10.5285 1.89506,-0.56278 46.70276,-0.70802 48.33775,-0.15679 1.92167,0.64796 3.72456,3.27101 3.72456,5.41901 0,1.201 -0.64014,2.81293 -1.51017,3.80407 -1.88434,2.14613 -0.18781,2.00409 -25.01435,2.09457 l -22.31014,0.0814 -0.8517,0.85168 c -0.46799,0.46836 -0.91631,1.2826 -0.99538,1.80925 -0.079,0.52672 -0.16917,9.98902 -0.20046,21.02736 -0.0299,11.03832 -0.13191,20.39689 -0.22281,20.79688 -0.52164,2.28571 -2.14992,4.036036 -4.30097,4.623616 -1.51285,0.41322 -2.35844,0.38736 -3.78127,-0.11588 z"
     id="path1" /></svg>
