<?xml version="1.0" encoding="UTF-8" standalone="no"?>
<!-- Created with Inkscape (http://www.inkscape.org/) -->

<svg
   width="300"
   height="300"
   viewBox="0 0 79.374998 79.375"
   version="1.1"
   id="svg1"
   xml:space="preserve"
   inkscape:version="1.4.2 (ebf0e940, 2025-05-08)"
   sodipodi:docname="app-icon.svg"
   inkscape:export-filename="favicon.png"
   inkscape:export-xdpi="96"
   inkscape:export-ydpi="96"
   xmlns:inkscape="http://www.inkscape.org/namespaces/inkscape"
   xmlns:sodipodi="http://sodipodi.sourceforge.net/DTD/sodipodi-0.dtd"
   xmlns="http://www.w3.org/2000/svg"
   xmlns:svg="http://www.w3.org/2000/svg"><sodipodi:namedview
     id="namedview1"
     pagecolor="#ffffff"
     bordercolor="#999999"
     borderopacity="1"
     inkscape:showpageshadow="2"
     inkscape:pageopacity="0"
     inkscape:pagecheckerboard="0"
     inkscape:deskcolor="#d1d1d1"
     inkscape:document-units="mm"
     inkscape:zoom="0.74118967"
     inkscape:cx="180.79043"
     inkscape:cy="309.63734"
     inkscape:window-width="1712"
     inkscape:window-height="848"
     inkscape:window-x="128"
     inkscape:window-y="92"
     inkscape:window-maximized="0"
     inkscape:current-layer="g1" /><defs
     id="defs1" /><g
     inkscape:label="Layer 1"
     inkscape:groupmode="layer"
     id="layer1"><g
       id="g1"
       transform="matrix(0.26458333,0,0,0.26458333,-1.5271635,-0.13528658)"><rect
         width="300"
         height="300"
         rx="0"
         fill="#08090c"
         id="rect1"
         x="5.7719584"
         y="0.51132125"
         style="fill:#000000;stroke-width:2.34375"
         inkscape:export-filename="favicon.png"
         inkscape:export-xdpi="96"
         inkscape:export-ydpi="96"
         ry="0" /><path
         style="fill:#ffffff;stroke-width:2.94268"
         d="m 77.109898,239.18068 c -3.597343,-0.96881 -6.569489,-3.93689 -7.52112,-7.51084 -0.236485,-0.88795 -0.29506,-4.27299 -0.297269,-17.12655 -0.003,-17.62454 -0.06021,-16.85213 1.348633,-18.08927 1.017657,-0.89351 2.115605,-1.2354 3.457165,-1.07651 1.493669,0.1769 2.56299,0.94129 3.252503,2.32497 l 0.56569,1.13514 v 15.28628 15.28628 l 0.630382,0.6304 c 0.346444,0.34672 0.856213,0.62937 1.132204,0.6281 0.276279,-0.002 7.634888,0.0233 16.35303,0.0541 l 15.851214,0.0562 0.96213,0.53916 c 3.15133,1.76592 2.96894,6.30188 -0.31329,7.79297 -0.813,0.36931 -1.86061,0.39219 -17.578333,0.3833 -13.682284,-0.008 -16.918653,-0.0646 -17.842939,-0.31352 z m 121.684382,0.0723 c -3.05282,-1.06712 -3.86798,-4.8538 -1.55849,-7.23996 1.2909,-1.33377 1.1116,-1.32102 18.62787,-1.32498 17.34058,-0.003 16.63803,0.0464 17.12277,-1.22847 0.12378,-0.32506 0.20664,-6.42666 0.20721,-15.24684 7.4e-4,-10.01478 0.0768,-14.98007 0.23814,-15.56757 0.34368,-1.25124 1.80773,-2.59031 3.14559,-2.87724 1.88724,-0.40473 3.61597,0.29064 4.60682,1.85304 l 0.6347,1.00081 v 16.09332 c 0,17.27355 0.0109,17.04686 -1.10292,19.23774 -0.65967,1.29526 -2.86457,3.48994 -4.24558,4.22603 -2.55852,1.36368 -2.1303,1.33605 -20.41456,1.31731 -10.99176,-0.0109 -16.83361,-0.0936 -17.26161,-0.24316 z m -49.49453,-23.48045 c -6.22764,-0.68709 -13.12285,-2.51322 -18.87045,-4.99771 -14.89836,-6.43996 -27.61525,-19.09161 -34.073021,-33.8981 -2.689578,-6.16679 -4.591905,-13.18351 -5.187817,-19.1351 l -0.143642,-1.43731 1.155352,-0.14062 c 0.635469,-0.0774 2.417065,-0.0924 3.959032,-0.0337 l 2.803568,0.10713 0.564912,3.30392 c 1.417306,8.28951 4.177066,15.17724 8.937446,22.30602 8.99241,13.46636 23.14805,22.59995 38.9729,25.14635 4.08761,0.65773 12.7053,0.7101 16.43918,0.0999 12.20783,-1.99509 23.11584,-7.54715 31.6091,-16.0887 8.93605,-8.98692 14.37876,-19.78414 16.28037,-32.29685 l 0.36632,-2.41193 0.78102,-0.10885 c 0.42931,-0.0598 2.27386,-0.10298 4.09838,-0.0959 l 3.31737,0.0126 -0.13426,1.44331 c -0.2271,2.44333 -1.00406,6.66693 -1.78176,9.68533 -4.64594,18.03245 -17.06287,33.38914 -33.9339,41.96791 -6.1825,3.14373 -12.13359,5.03016 -19.84821,6.29164 -2.45608,0.40158 -12.53881,0.58603 -15.31204,0.28006 z m 4.95342,-15.40934 c -0.51496,-0.54828 -0.53264,-0.66708 -0.53264,-3.67146 0,-3.08258 0.003,-3.10899 0.58005,-3.68484 0.75687,-0.75688 1.73281,-0.7734 2.46453,-0.0414 0.51883,0.51894 0.53983,0.64768 0.57541,3.58471 0.0332,2.78067 -0.002,3.09899 -0.41108,3.64916 -0.64702,0.86993 -1.93897,0.94916 -2.67643,0.16416 z m -1.04893,-41.41772 c -4.44129,-1.19433 -7.18259,-5.37539 -6.46678,-9.8633 0.44314,-2.77691 2.075,-5.08977 4.50605,-6.38552 l 1.29116,-0.68818 v -8.93301 c 0,-7.71716 0.0497,-9.05137 0.34811,-9.80277 0.90532,-2.26265 3.82289,-2.51786 5.20096,-0.45497 l 0.48955,0.7328 v 9.29588 9.29588 l 1.02441,0.53761 c 1.49084,0.78242 2.89589,2.28355 3.73751,3.9931 0.70432,1.43064 0.73747,1.60496 0.73747,3.87486 0,2.26681 -0.0332,2.4395 -0.70724,3.73109 -1.29631,2.48228 -2.84435,3.78551 -5.46607,4.60147 -1.53501,0.47772 -3.08068,0.49916 -4.69508,0.065 z m -47.51949,-6.67303 c -1.02595,-0.57197 -1.15364,-2.03785 -0.24865,-2.85224 0.50502,-0.45441 0.73117,-0.48523 3.5564,-0.48523 2.91573,0 3.03486,0.0177 3.5464,0.52932 0.72614,0.72614 0.7147,1.8091 -0.0277,2.50625 -0.52269,0.49187 -0.72421,0.52601 -3.39671,0.57691 -2.22214,0.0426 -2.96938,-0.0177 -3.43114,-0.27505 z m 93.32523,0.0798 c -1.11517,-0.60995 -1.32774,-2.00131 -0.44092,-2.88788 0.5122,-0.51193 0.62928,-0.52933 3.56823,-0.52933 2.93888,0 3.0563,0.0172 3.56823,0.52933 0.88985,0.88988 0.65839,2.27926 -0.48072,2.88602 -0.6063,0.32296 -5.62465,0.32445 -6.21443,0.002 z m -107.853782,-9.2494 c 0.316052,-4.18522 1.800548,-10.75355 3.486616,-15.42589 6.629046,-18.37001 20.027386,-32.328351 37.836506,-39.417969 4.78872,-1.906323 12.12044,-3.727172 16.66334,-4.138344 l 1.67601,-0.151834 -0.0586,4.276157 -0.0586,4.276121 -2.15661,0.269251 c -6.60883,0.825361 -14.15791,3.319693 -20.26193,6.694832 -4.76851,2.636666 -8.05527,5.162426 -12.41096,9.537246 -4.7233,4.74405 -7.40514,8.39872 -10.36906,14.13032 -3.47341,6.71673 -5.43281,12.88655 -6.252886,19.68948 l -0.266337,2.21054 H 94.99642 91.009094 Z m 121.381862,1.68481 c -0.52214,-0.25168 -0.59613,-0.46602 -0.80106,-2.32265 -0.40391,-3.65719 -1.98002,-9.67572 -3.56867,-13.62551 -3.07398,-7.64306 -7.16921,-13.85632 -12.9173,-19.59793 -3.7136,-3.70946 -5.86462,-5.46041 -9.78851,-7.96793 -6.81714,-4.356491 -14.25295,-7.139506 -22.28279,-8.33982 l -2.44989,-0.366225 0.003,-3.896164 c 0.003,-5.08669 -0.0442,-4.924779 1.48107,-4.759458 12.60612,1.364286 23.15862,5.598091 33.23766,13.335455 2.84091,2.180883 8.43999,7.737662 10.77086,10.689522 4.1827,5.29703 7.40338,10.88768 9.80586,17.02146 2.2113,5.64563 3.68735,11.6525 4.19591,17.07528 0.20555,2.18939 0.1525,2.46229 -0.53928,2.77731 -0.68984,0.31429 -6.48567,0.29539 -7.14705,-0.0233 z m -57.77938,-35.63488 c -0.96621,-0.42021 -1.20204,-1.37652 -1.11153,-4.50762 0.0718,-2.48365 0.0889,-2.56031 0.67879,-3.06734 0.7678,-0.65983 1.68314,-0.66437 2.44144,-0.0115 0.56679,0.48756 0.59419,0.60655 0.68255,2.96537 0.11879,3.17694 -0.13648,4.20818 -1.1469,4.63036 -0.86356,0.36081 -0.69255,0.3618 -1.54435,-0.009 z m 81.34521,-2.46402 c -1.05915,-0.48883 -1.70164,-1.16597 -2.17013,-2.28719 -0.32655,-0.78232 -0.34368,-2.18247 -0.19891,-16.301976 0.16684,-16.270232 0.15581,-16.514828 -0.7888,-17.370204 -0.42546,-0.384947 -1.21945,-0.408429 -17.29875,-0.511313 -16.49597,-0.105649 -16.86904,-0.117142 -17.60497,-0.549497 -2.96767,-1.743426 -2.784,-6.265501 0.31164,-7.671627 0.82206,-0.373409 1.85353,-0.396172 18.16865,-0.400643 l 17.29709,-0.0059 1.39626,0.506841 c 3.70211,1.343813 6.182,4.100716 6.9592,7.736756 0.29395,1.375733 0.31771,3.535536 0.19061,17.528096 -0.10055,11.053409 -0.22158,16.222617 -0.39451,16.816507 -0.66863,2.29519 -3.60762,3.55195 -5.86738,2.50901 z M 71.984734,106.55664 c -1.135407,-0.40164 -2.38585,-1.7599 -2.702398,-2.93538 -0.39064,-1.45142 -0.07347,-32.185588 0.350307,-33.919621 0.858868,-3.514976 4.000479,-6.726847 7.635615,-7.806371 1.405095,-0.417274 34.627822,-0.524962 35.840092,-0.116252 1.42482,0.480431 2.76158,2.425295 2.76158,4.017933 0,0.890482 -0.47464,2.08565 -1.11971,2.820533 -1.39715,1.591251 -0.13926,1.485935 -18.546932,1.553022 l -16.541885,0.06035 -0.631494,0.63148 c -0.346992,0.347266 -0.679399,0.950986 -0.738026,1.341471 -0.05858,0.390537 -0.125431,7.406373 -0.148631,15.590765 -0.02217,8.184378 -0.09781,15.1233 -0.165203,15.41988 -0.386771,1.69474 -1.594061,2.99252 -3.18896,3.42818 -1.121705,0.30638 -1.748669,0.28721 -2.803628,-0.0859 z"
         id="path1" /></g></g></svg>
