<?xml version="1.0" encoding="UTF-8" standalone="no"?>
<!-- Created with Inkscape (http://www.inkscape.org/) -->

<svg
   width="300"
   height="300"
   viewBox="0 0 79.374998 79.375"
   version="1.1"
   id="svg1"
   xml:space="preserve"
   inkscape:version="1.4.2 (ebf0e940, 2025-05-08)"
   sodipodi:docname="app-icon.svg"
   inkscape:export-filename="favicon.png"
   inkscape:export-xdpi="96"
   inkscape:export-ydpi="96"
   xmlns:inkscape="http://www.inkscape.org/namespaces/inkscape"
   xmlns:sodipodi="http://sodipodi.sourceforge.net/DTD/sodipodi-0.dtd"
   xmlns="http://www.w3.org/2000/svg"
   xmlns:svg="http://www.w3.org/2000/svg"><sodipodi:namedview
     id="namedview1"
     pagecolor="#ffffff"
     bordercolor="#999999"
     borderopacity="1"
     inkscape:showpageshadow="2"
     inkscape:pageopacity="0"
     inkscape:pagecheckerboard="0"
     inkscape:deskcolor="#d1d1d1"
     inkscape:document-units="mm"
     inkscape:zoom="0.74118967"
     inkscape:cx="180.11584"
     inkscape:cy="309.63734"
     inkscape:window-width="1712"
     inkscape:window-height="848"
     inkscape:window-x="87"
     inkscape:window-y="228"
     inkscape:window-maximized="0"
     inkscape:current-layer="g1" /><defs
     id="defs1" /><g
     inkscape:label="Layer 1"
     inkscape:groupmode="layer"
     id="layer1"><g
       id="g1"
       transform="matrix(0.26458333,0,0,0.26458333,-1.5271635,-0.13528658)"><rect
         width="300"
         height="300"
         rx="0"
         fill="#08090c"
         id="rect1"
         x="5.7719584"
         y="0.51132125"
         style="fill:#000000;stroke-width:2.34375"
         inkscape:export-filename="favicon.png"
         inkscape:export-xdpi="96"
         inkscape:export-ydpi="96" /><path
         style="fill:#ffffff;stroke-width:3.56728"
         d="m 60.413413,258.00128 c -4.360901,-1.17445 -7.963902,-4.77252 -9.117522,-9.10506 -0.286681,-1.07643 -0.357688,-5.17996 -0.360367,-20.76177 -0.0036,-21.36545 -0.07299,-20.42909 1.634889,-21.92882 1.23366,-1.08316 2.564655,-1.49762 4.190969,-1.30501 1.810708,0.21446 3.106999,1.14109 3.942865,2.81847 l 0.685762,1.37607 v 18.53089 18.53088 l 0.764184,0.76421 c 0.419978,0.42031 1.037949,0.76295 1.372521,0.76141 0.334921,-0.002 9.255438,0.0282 19.824056,0.0656 l 19.21573,0.0681 1.16635,0.65361 c 3.82022,2.14074 3.59911,7.63948 -0.37979,9.44707 -0.98556,0.44769 -2.25554,0.47543 -21.309439,0.46465 -16.58643,-0.01 -20.509737,-0.0783 -21.630208,-0.38006 z m 147.512607,0.0876 c -3.7008,-1.29363 -4.68898,-5.88405 -1.88929,-8.77669 1.5649,-1.61687 1.34754,-1.60141 22.58175,-1.60622 21.02122,-0.004 20.16955,0.0563 20.75718,-1.48921 0.15005,-0.39406 0.2505,-7.79076 0.25119,-18.48308 9e-4,-12.14047 0.0931,-18.15967 0.28868,-18.87188 0.41663,-1.51682 2.19144,-3.14011 3.81327,-3.48794 2.28781,-0.49064 4.38347,0.35232 5.58464,2.24635 l 0.76942,1.21324 v 19.50922 c 0,20.93996 0.0132,20.66516 -1.33702,23.32107 -0.79969,1.57018 -3.47259,4.2307 -5.14673,5.12302 -3.10158,1.65313 -2.58247,1.61964 -24.74767,1.59692 -13.32483,-0.0132 -20.40665,-0.11347 -20.92549,-0.29477 z m -60.00004,-28.46432 c -7.54949,-0.83293 -15.90825,-3.04667 -22.87581,-6.0585 -18.06062,-7.80688 -33.476753,-23.14392 -41.305219,-41.09318 -3.260457,-7.47572 -5.566564,-15.98178 -6.288961,-23.19663 l -0.174131,-1.74239 1.400582,-0.17047 c 0.770351,-0.0938 2.930101,-0.11201 4.79936,-0.0409 l 3.398642,0.12987 0.684818,4.0052 c 1.718138,10.049 5.063669,18.39869 10.834465,27.0406 10.901104,16.32467 28.061364,27.39692 47.245134,30.48381 4.95523,0.79734 15.40207,0.86082 19.92849,0.1211 14.79902,-2.41856 28.02232,-9.14908 38.31832,-19.50363 C 214.72445,188.705 221.3224,175.616 223.62764,160.4474 l 0.44408,-2.92388 0.94679,-0.13195 c 0.52044,-0.0725 2.7565,-0.12484 4.96829,-0.11622 l 4.0215,0.0153 -0.16276,1.74966 c -0.2753,2.96194 -1.21718,8.08202 -2.15995,11.7411 -5.63207,21.85994 -20.68456,40.47618 -41.13657,50.87584 -7.49477,3.81101 -14.70901,6.09784 -24.06111,7.62708 -2.97739,0.48682 -15.20024,0.71042 -18.56211,0.3395 z m 6.00482,-18.68006 c -0.62426,-0.66466 -0.6457,-0.80868 -0.6457,-4.45075 0,-3.73688 0.004,-3.76889 0.70317,-4.46697 0.91752,-0.91753 2.10061,-0.93756 2.98764,-0.0502 0.62896,0.62909 0.65441,0.78515 0.69755,4.34558 0.0402,3.37089 -0.003,3.75677 -0.49834,4.42372 -0.78435,1.05458 -2.35052,1.15063 -3.24452,0.199 z m -1.27157,-50.20888 c -5.38398,-1.44783 -8.70714,-6.51635 -7.83939,-11.95684 0.53719,-3.36633 2.51542,-6.1701 5.46248,-7.74088 l 1.56522,-0.83426 v -10.82909 c 0,-9.35517 0.0603,-10.97257 0.42199,-11.88347 1.09749,-2.74291 4.63432,-3.05228 6.3049,-0.55153 l 0.59346,0.88834 v 11.26898 11.26899 l 1.24184,0.65172 c 1.80729,0.94849 3.51056,2.76825 4.53082,4.84066 0.85382,1.7343 0.89401,1.94562 0.89401,4.69732 0,2.74795 -0.0402,2.9573 -0.85736,4.52303 -1.57146,3.00916 -3.44808,4.58901 -6.62628,5.57816 -1.86082,0.57912 -3.73457,0.60511 -5.69163,0.0788 z M 95.053449,152.6462 c -1.243719,-0.69337 -1.398515,-2.47039 -0.301431,-3.45764 0.61221,-0.55086 0.886362,-0.58823 4.311268,-0.58823 3.534604,0 3.679024,0.0214 4.299144,0.64168 0.88027,0.88026 0.8664,2.19309 -0.0336,3.03821 -0.63364,0.59627 -0.87793,0.63766 -4.117685,0.69936 -2.693799,0.0516 -3.599656,-0.0214 -4.15942,-0.33342 z m 113.134061,0.0967 c -1.35188,-0.73941 -1.60957,-2.4261 -0.53451,-3.50085 0.62092,-0.62058 0.76285,-0.64168 4.3256,-0.64168 3.56268,0 3.70502,0.0208 4.32561,0.64168 1.07873,1.07877 0.79814,2.76305 -0.58275,3.4986 -0.73499,0.39151 -6.81852,0.39331 -7.53348,0.002 z M 77.441123,141.53035 c 0.383135,-5.07356 2.182725,-13.03605 4.22667,-18.70013 8.036105,-22.26915 24.278317,-39.19023 45.867527,-47.784661 5.80516,-2.310952 14.69307,-4.518286 20.20023,-5.016732 l 2.03175,-0.184062 -0.071,5.183797 -0.071,5.183753 -2.61436,0.326401 c -8.01159,1.000549 -17.16301,4.024317 -24.56265,8.115849 -5.78065,3.196316 -9.76504,6.258185 -15.04525,11.561585 -5.72585,5.751 -8.976932,10.1814 -12.569955,17.12956 -4.210662,8.1424 -6.585961,15.6218 -7.580102,23.86869 l -0.322868,2.67974 H 82.096454 77.262795 Z M 224.587,143.57277 c -0.63297,-0.3051 -0.72266,-0.56493 -0.97109,-2.81565 -0.48964,-4.43344 -2.40029,-11.72944 -4.32614,-16.5176 -3.72645,-9.26534 -8.69092,-16.7974 -15.65908,-23.75771 -4.50183,-4.496815 -7.10942,-6.619413 -11.86617,-9.659171 -8.26412,-5.281177 -17.27823,-8.654904 -27.01245,-10.109991 l -2.96989,-0.443959 0.004,-4.723147 c 0.004,-6.16637 -0.0536,-5.970093 1.79544,-5.769681 15.28184,1.653863 28.07417,6.786319 40.29254,16.165984 3.44392,2.643788 10.23143,9.380025 13.05704,12.95843 5.07051,6.421365 8.97479,13.198655 11.88722,20.634365 2.68066,6.84395 4.47001,14.12582 5.08651,20.69961 0.24918,2.65411 0.18487,2.98493 -0.65375,3.36682 -0.83626,0.381 -7.86229,0.35808 -8.66405,-0.0282 z m -70.04339,-43.19859 c -1.1713,-0.509399 -1.45718,-1.6687 -1.34746,-5.464396 0.0871,-3.010816 0.10782,-3.103746 0.82287,-3.718392 0.93077,-0.799886 2.04039,-0.805387 2.95964,-0.01393 0.6871,0.591043 0.72032,0.735287 0.82743,3.594785 0.144,3.851262 -0.16545,5.101389 -1.39034,5.613183 -1.04685,0.43739 -0.83955,0.43859 -1.87214,-0.0109 z m 98.61121,-2.987021 c -1.28397,-0.592589 -2.06283,-1.413462 -2.63076,-2.772667 -0.39586,-0.948364 -0.41663,-2.645712 -0.24113,-19.762163 0.20226,-19.723684 0.18888,-20.020198 -0.95623,-21.057132 -0.51576,-0.466654 -1.47828,-0.49512 -20.97051,-0.619842 -19.99733,-0.128074 -20.44959,-0.142006 -21.34172,-0.666131 -3.59758,-2.113479 -3.37493,-7.595391 0.37778,-9.299975 0.99655,-0.452668 2.24695,-0.480262 22.02506,-0.485682 l 20.9685,-0.0072 1.69262,0.614421 c 4.4879,1.629046 7.49416,4.971117 8.43633,9.378928 0.35634,1.667741 0.38514,4.285975 0.23107,21.248538 -0.12189,13.39956 -0.26861,19.665961 -0.47825,20.385905 -0.81055,2.782366 -4.37336,4.305881 -7.11277,3.041561 z M 54.200403,97.227006 c -1.376404,-0.486887 -2.892261,-2.133448 -3.275998,-3.558433 -0.473556,-1.759493 -0.08907,-39.01717 0.424661,-41.119261 1.041168,-4.261051 4.849604,-8.15466 9.256319,-9.463319 1.703335,-0.505843 41.977785,-0.636389 43.447365,-0.140927 1.72725,0.582405 3.34774,2.940078 3.34774,4.870762 0,1.079493 -0.57538,2.528342 -1.35738,3.419208 -1.6937,1.929003 -0.16881,1.801333 -22.483623,1.88266 l -20.052997,0.07316 -0.765533,0.765515 c -0.420643,0.420975 -0.823605,1.152838 -0.894676,1.626206 -0.07101,0.473431 -0.152055,8.978419 -0.180179,18.899997 -0.02688,9.92156 -0.118565,18.333312 -0.200268,18.692835 -0.468865,2.054462 -1.93241,3.627705 -3.865836,4.155839 -1.359793,0.371414 -2.119834,0.34817 -3.398714,-0.104156 z"
         id="path1" /></g></g></svg>
